<svg xmlns="http://www.w3.org/2000/svg" xmlns:xlink="http://www.w3.org/1999/xlink" viewBox="0 0 495.1 340.9"><defs><style>.a,.fh,.fn,.fz,.ga,.gc,.gd{fill:none;}.b{fill:#f8ec20;opacity:0.5;}.ax,.b,.fd{isolation:isolate;}.c{fill:url(#a);}.d{fill:url(#b);}.e{fill:url(#c);}.f{fill:url(#d);}.g{fill:url(#e);}.h{fill:url(#f);}.i{fill:url(#g);}.j{fill:url(#h);}.k{fill:url(#i);}.l{fill:url(#j);}.m{fill:url(#k);}.n{fill:url(#l);}.o{fill:url(#m);}.p{fill:url(#n);}.q{fill:url(#o);}.r{fill:url(#p);}.s{fill:url(#q);}.t{fill:url(#r);}.u{fill:url(#s);}.v{fill:url(#t);}.w{fill:url(#u);}.x{fill:url(#v);}.y{fill:url(#w);}.z{fill:url(#x);}.aa{fill:url(#y);}.ab{fill:url(#z);}.ac{fill:url(#aa);}.ad{fill:url(#ab);}.ae{fill:url(#ac);}.af{fill:url(#ad);}.ag{fill:url(#ae);}.ah{fill:url(#af);}.ai{fill:url(#ag);}.aj{fill:url(#ah);}.ak{fill:url(#ai);}.al{fill:url(#aj);}.am{fill:url(#ak);}.an{fill:url(#al);}.ao{fill:url(#am);}.ap{fill:url(#an);}.aq{fill:url(#ao);}.ar{fill:url(#ap);}.as{fill:url(#aq);}.at{fill:url(#ar);}.au{fill:url(#as);}.av{fill:url(#at);}.aw{fill:url(#au);}.ax,.fu{fill:#fff;}.ax{opacity:0.2;}.ay{fill:url(#av);}.az{fill:url(#aw);}.ba{fill:url(#ax);}.bb{fill:url(#ay);}.bc{fill:url(#az);}.bd{fill:url(#ba);}.be{fill:url(#bb);}.bf{fill:url(#bc);}.bg{fill:url(#bd);}.bh{fill:url(#be);}.bi{fill:url(#bf);}.bj{fill:url(#bg);}.bk{fill:url(#bh);}.bl{fill:url(#bi);}.bm{fill:url(#bj);}.bn{fill:url(#bk);}.bo{fill:url(#bl);}.bp{fill:url(#bm);}.bq{fill:url(#bn);}.br{fill:url(#bo);}.bs{fill:url(#bp);}.bt{fill:url(#bq);}.bu{fill:url(#br);}.bv{fill:url(#bs);}.bw{fill:url(#bt);}.bx{fill:url(#bu);}.by{fill:url(#bv);}.bz{fill:url(#bw);}.ca{fill:url(#bx);}.cb{fill:url(#by);}.cc{fill:url(#bz);}.cd{fill:url(#ca);}.ce{fill:url(#cb);}.cf{fill:url(#cc);}.cg{fill:url(#cd);}.ch{fill:url(#ce);}.ci{fill:url(#cf);}.cj{fill:url(#cg);}.ck{fill:url(#ch);}.cl{fill:url(#ci);}.cm{fill:url(#cj);}.cn{fill:url(#ck);}.co{fill:url(#cl);}.cp{fill:url(#cm);}.cq{fill:url(#cn);}.cr{fill:url(#co);}.cs{fill:url(#cp);}.ct{fill:url(#cq);}.cu{fill:url(#cr);}.cv{fill:url(#cs);}.cw{fill:url(#ct);}.cx{fill:url(#cu);}.cy{fill:url(#cv);}.cz{fill:url(#cw);}.da{fill:url(#cx);}.db{fill:url(#cy);}.dc{fill:url(#cz);}.dd{fill:url(#da);}.de{fill:url(#db);}.df{fill:url(#dc);}.dg{fill:url(#dd);}.dh{fill:url(#de);}.di{fill:url(#df);}.dj{fill:url(#dg);}.dk{fill:url(#dh);}.dl{fill:url(#di);}.dm{fill:url(#dj);}.dn{fill:url(#dk);}.do{fill:url(#dl);}.dp{fill:url(#dm);}.dq{fill:url(#dn);}.dr{fill:url(#do);}.ds{fill:url(#dp);}.dt{fill:url(#dq);}.du{fill:url(#dr);}.dv{fill:url(#ds);}.dw{fill:url(#dt);}.dx{fill:url(#du);}.dy{fill:url(#dv);}.dz{fill:url(#dw);}.ea{fill:url(#dx);}.eb{fill:url(#dy);}.ec{fill:url(#dz);}.ed{fill:url(#ea);}.ee{fill:url(#eb);}.ef{fill:url(#ec);}.eg{fill:url(#ed);}.eh{fill:url(#ee);}.ei{fill:url(#ef);}.ej{fill:url(#eg);}.ek{fill:url(#eh);}.el{fill:url(#ei);}.em{fill:url(#ej);}.en{fill:url(#ek);}.eo{fill:#fff1dc;}.ep,.gj{fill:#00006a;}.eq{fill:#fcd5ac;}.er{fill:url(#el);}.es{fill:#edbf96;}.et{fill:url(#em);}.eu{fill:url(#en);}.ev{fill:url(#eo);}.ew{fill:url(#ep);}.ex{fill:url(#eq);}.ey{fill:url(#er);}.ez{fill:url(#es);}.fa{fill:url(#et);}.fb{fill:url(#eu);}.fc{fill:url(#ev);}.fd{opacity:0.3;fill:url(#ew);}.fe{fill:url(#ex);}.ff{fill:url(#ey);}.fg{fill:url(#ez);}.fh,.fn,.fz,.ga,.gc{stroke-linecap:round;}.fh,.fn{stroke-miterlimit:10;}.fh{stroke:url(#fa);}.fi{fill:url(#fb);}.fj{fill:url(#fc);}.fk{fill:url(#fd);}.fl{fill:url(#fe);}.fm{fill:url(#ff);}.fn{stroke-width:3px;stroke:url(#fg);}.fo{fill:url(#fh);}.fp{fill:url(#fi);}.fq{fill:url(#fj);}.fr{fill:url(#fk);}.fs{fill:url(#fl);}.ft{fill:url(#fm);}.fv{fill:#95bffe;}.fw{fill:#c9deff;}.fx{fill:#007aff;}.fy{fill:#cfe2fd;}.fz,.gd{stroke:#007aff;}.fz,.ga,.gc,.gd{stroke-linejoin:round;}.fz,.ga{stroke-width:1.44px;}.ga,.gc{stroke:#00bfa5;}.gb{clip-path:url(#fn);}.gc,.gd{stroke-width:2px;}.ge{fill:#0079ff;}.gf{fill:url(#fo);}.gg{fill:url(#fp);}.gh{fill:url(#fq);}.gi{fill:url(#fr);}.gj{font-size:7.87px;}.gj,.gk{font-family:MilkyNiceClean, Milky Nice;}.gk{font-size:7.37px;fill:#f4b900;}.gl{fill:url(#fs);}.gm{fill:url(#ft);}.gn{fill:url(#fu);}.go{fill:url(#fv);}.gp{fill:url(#fw);}.gq{fill:url(#fx);}</style><linearGradient id="a" x1="429.85" y1="1001.55" x2="430.5" y2="765.22" gradientTransform="translate(0 -728)" gradientUnits="userSpaceOnUse"><stop offset="0" stop-color="#00349b"/><stop offset="0.5" stop-color="#005cff"/><stop offset="1" stop-color="#007aff"/></linearGradient><linearGradient id="b" x1="393.55" y1="996.9" x2="513.48" y2="996.9" xlink:href="#a"/><linearGradient id="c" x1="300.45" y1="1027.47" x2="449.05" y2="979.21" xlink:href="#a"/><linearGradient id="d" x1="485.34" y1="997.23" x2="491.49" y2="997.29" xlink:href="#a"/><linearGradient id="e" x1="489.61" y1="997.23" x2="495.77" y2="997.29" xlink:href="#a"/><linearGradient id="f" x1="493.88" y1="997.23" x2="500.04" y2="997.29" xlink:href="#a"/><linearGradient id="g" x1="498.15" y1="997.23" x2="504.31" y2="997.29" xlink:href="#a"/><linearGradient id="h" x1="424.38" y1="997.06" x2="412.7" y2="995.7" gradientTransform="translate(-28.3 -732.5)" xlink:href="#a"/><linearGradient id="i" x1="424.2" y1="993.42" x2="415.23" y2="1000.06" gradientTransform="translate(-28.3 -732.5)" gradientUnits="userSpaceOnUse"><stop offset="0" stop-color="#007aff"/><stop offset="0.5" stop-color="#009cff"/><stop offset="1" stop-color="#d9eaff"/></linearGradient><linearGradient id="j" x1="421.98" y1="996.84" x2="415.69" y2="996.11" gradientTransform="translate(-28.3 -732.5)" xlink:href="#a"/><linearGradient id="k" x1="414.35" y1="993.75" x2="408.06" y2="993.02" gradientTransform="translate(-28.3 -732.5)" xlink:href="#a"/><linearGradient id="l" x1="407.55" y1="996" x2="416.51" y2="990.72" xlink:href="#i"/><linearGradient id="m" x1="409.21" y1="993.74" x2="402.92" y2="993.01" gradientTransform="translate(-28.3 -732.5)" xlink:href="#a"/><linearGradient id="n" x1="402.39" y1="995.98" x2="411.35" y2="990.7" xlink:href="#i"/><linearGradient id="o" x1="414.36" y1="999.25" x2="408.06" y2="998.52" gradientTransform="translate(-28.3 -732.5)" xlink:href="#a"/><linearGradient id="p" x1="407.52" y1="1001.52" x2="416.48" y2="996.24" xlink:href="#i"/><linearGradient id="q" x1="409.21" y1="999.25" x2="402.93" y2="998.52" gradientTransform="translate(-28.3 -732.5)" xlink:href="#a"/><linearGradient id="r" x1="402.36" y1="1001.5" x2="411.32" y2="996.22" xlink:href="#i"/><linearGradient id="s" x1="403.96" y1="993.75" x2="397.68" y2="993.02" gradientTransform="translate(-28.3 -732.5)" xlink:href="#a"/><linearGradient id="t" x1="397.16" y1="996" x2="406.12" y2="990.72" xlink:href="#i"/><linearGradient id="u" x1="403.96" y1="999.25" x2="397.68" y2="998.52" gradientTransform="translate(-28.3 -732.5)" xlink:href="#a"/><linearGradient id="v" x1="397.13" y1="1001.52" x2="406.09" y2="996.24" xlink:href="#i"/><linearGradient id="w" x1="398.64" y1="993.75" x2="392.36" y2="993.02" gradientTransform="translate(-28.3 -732.5)" xlink:href="#a"/><linearGradient id="x" x1="391.84" y1="996.01" x2="400.8" y2="990.73" xlink:href="#i"/><linearGradient id="y" x1="398.64" y1="999.25" x2="392.36" y2="998.52" gradientTransform="translate(-28.3 -732.5)" xlink:href="#a"/><linearGradient id="z" x1="391.81" y1="1001.53" x2="400.77" y2="996.25" xlink:href="#i"/><linearGradient id="aa" x1="423.48" y1="987.79" x2="421.1" y2="987.51" gradientTransform="translate(-28.3 -732.5)" gradientUnits="userSpaceOnUse"><stop offset="0" stop-color="#d99100"/><stop offset="0.5" stop-color="#fac800"/><stop offset="1" stop-color="#fbe20e"/></linearGradient><linearGradient id="ab" x1="420.54" y1="987.8" x2="418.16" y2="987.52" gradientTransform="translate(-28.3 -732.5)" gradientUnits="userSpaceOnUse"><stop offset="0" stop-color="#00bfa5"/><stop offset="0.5" stop-color="#6dd9ca"/><stop offset="1" stop-color="#b5f2ea"/></linearGradient><linearGradient id="ac" x1="417.88" y1="987.79" x2="415.49" y2="987.51" gradientTransform="translate(-28.3 -732.5)" gradientUnits="userSpaceOnUse"><stop offset="0" stop-color="red"/><stop offset="0.5" stop-color="#ff4d4d"/><stop offset="1" stop-color="#ff8080"/></linearGradient><linearGradient id="ad" x1="360" y1="1007.87" x2="403.63" y2="1008.48" xlink:href="#a"/><linearGradient id="ae" x1="393.83" y1="1000.92" x2="357.08" y2="1015.27" gradientTransform="translate(0 -728)" xlink:href="#i"/><linearGradient id="af" x1="451.31" y1="996.85" x2="451.96" y2="996.85" gradientTransform="translate(0 -728)" xlink:href="#aa"/><linearGradient id="ag" x1="448.41" y1="996.85" x2="449.07" y2="996.85" gradientTransform="translate(0 -728)" xlink:href="#aa"/><linearGradient id="ah" x1="394.53" y1="1004.2" x2="423.26" y2="1004.2" gradientTransform="translate(0 -728)" xlink:href="#aa"/><linearGradient id="ai" x1="394.53" y1="1006.3" x2="423.26" y2="1006.3" gradientTransform="translate(0 -728)" xlink:href="#aa"/><linearGradient id="aj" x1="354.17" y1="986.73" x2="362.42" y2="984.05" gradientTransform="translate(-28.3 -732.5)" xlink:href="#a"/><linearGradient id="ak" x1="354.17" y1="1008.13" x2="362.42" y2="1005.45" gradientTransform="translate(-28.3 -732.5)" xlink:href="#a"/><linearGradient id="al" x1="428.11" y1="986.72" x2="436.35" y2="984.04" gradientTransform="translate(-28.3 -732.5)" xlink:href="#a"/><linearGradient id="am" x1="428.11" y1="1008.12" x2="436.35" y2="1005.44" gradientTransform="translate(-28.3 -732.5)" xlink:href="#a"/><linearGradient id="an" x1="437.19" y1="986.73" x2="445.44" y2="984.05" gradientTransform="translate(-28.3 -732.5)" xlink:href="#a"/><linearGradient id="ao" x1="437.19" y1="1008.13" x2="445.44" y2="1005.45" gradientTransform="translate(-28.3 -732.5)" xlink:href="#a"/><linearGradient id="ap" x1="503.03" y1="986.71" x2="511.28" y2="984.03" gradientTransform="translate(-28.3 -732.5)" xlink:href="#a"/><linearGradient id="aq" x1="503.02" y1="1008.11" x2="511.27" y2="1005.43" gradientTransform="translate(-28.3 -732.5)" xlink:href="#a"/><linearGradient id="ar" x1="385.12" y1="992.99" x2="359.95" y2="994.37" xlink:href="#a"/><linearGradient id="as" x1="358.63" y1="998.15" x2="445.9" y2="969.81" xlink:href="#a"/><linearGradient id="at" x1="310.96" y1="1013.64" x2="391.66" y2="987.43" gradientTransform="translate(0 -728)" xlink:href="#i"/><linearGradient id="au" x1="363.22" y1="993.85" x2="381.78" y2="993.85" gradientTransform="translate(0 -728)" xlink:href="#aa"/><linearGradient id="av" x1="393.55" y1="965.65" x2="513.48" y2="965.65" xlink:href="#a"/><linearGradient id="aw" x1="300.43" y1="996.17" x2="449.03" y2="947.91" xlink:href="#a"/><linearGradient id="ax" x1="485.34" y1="965.93" x2="491.49" y2="965.99" xlink:href="#a"/><linearGradient id="ay" x1="489.61" y1="965.93" x2="495.77" y2="965.99" xlink:href="#a"/><linearGradient id="az" x1="493.88" y1="965.93" x2="500.04" y2="965.99" xlink:href="#a"/><linearGradient id="ba" x1="498.15" y1="965.93" x2="504.31" y2="965.99" xlink:href="#a"/><linearGradient id="bb" x1="424.37" y1="965.86" x2="412.69" y2="964.5" gradientTransform="translate(-28.3 -732.5)" xlink:href="#a"/><linearGradient id="bc" x1="424.22" y1="962.2" x2="415.25" y2="968.84" xlink:href="#i"/><linearGradient id="bd" x1="421.97" y1="965.64" x2="415.68" y2="964.91" gradientTransform="translate(-28.3 -732.5)" xlink:href="#a"/><linearGradient id="be" x1="414.35" y1="962.45" x2="408.06" y2="961.72" gradientTransform="translate(-28.3 -732.5)" xlink:href="#a"/><linearGradient id="bf" x1="407.53" y1="964.72" x2="416.49" y2="959.44" xlink:href="#i"/><linearGradient id="bg" x1="409.21" y1="962.45" x2="402.92" y2="961.72" gradientTransform="translate(-28.3 -732.5)" xlink:href="#a"/><linearGradient id="bh" x1="402.37" y1="964.69" x2="411.33" y2="959.41" xlink:href="#i"/><linearGradient id="bi" x1="414.35" y1="968.05" x2="408.06" y2="967.32" gradientTransform="translate(-28.3 -732.5)" xlink:href="#a"/><linearGradient id="bj" x1="407.54" y1="970.31" x2="416.5" y2="965.03" xlink:href="#i"/><linearGradient id="bk" x1="409.21" y1="968.04" x2="402.92" y2="967.31" gradientTransform="translate(-28.3 -732.5)" xlink:href="#a"/><linearGradient id="bl" x1="402.39" y1="970.28" x2="411.35" y2="965" xlink:href="#i"/><linearGradient id="bm" x1="403.96" y1="962.45" x2="397.68" y2="961.72" gradientTransform="translate(-28.3 -732.5)" xlink:href="#a"/><linearGradient id="bn" x1="397.14" y1="964.71" x2="406.1" y2="959.43" xlink:href="#i"/><linearGradient id="bo" x1="403.96" y1="968.05" x2="397.68" y2="967.32" gradientTransform="translate(-28.3 -732.5)" xlink:href="#a"/><linearGradient id="bp" x1="397.15" y1="970.31" x2="406.11" y2="965.03" xlink:href="#i"/><linearGradient id="bq" x1="398.64" y1="962.45" x2="392.36" y2="961.72" gradientTransform="translate(-28.3 -732.5)" xlink:href="#a"/><linearGradient id="br" x1="391.82" y1="964.72" x2="400.78" y2="959.44" xlink:href="#i"/><linearGradient id="bs" x1="398.64" y1="968.05" x2="392.36" y2="967.32" gradientTransform="translate(-28.3 -732.5)" xlink:href="#a"/><linearGradient id="bt" x1="391.83" y1="970.31" x2="400.79" y2="965.03" xlink:href="#i"/><linearGradient id="bu" x1="423.48" y1="956.59" x2="421.1" y2="956.31" xlink:href="#aa"/><linearGradient id="bv" x1="420.54" y1="956.6" x2="418.16" y2="956.32" xlink:href="#ab"/><linearGradient id="bw" x1="417.88" y1="956.59" x2="415.49" y2="956.31" xlink:href="#ac"/><linearGradient id="bx" x1="360" y1="976.57" x2="403.63" y2="977.18" xlink:href="#a"/><linearGradient id="by" x1="393.82" y1="969.63" x2="357.07" y2="983.98" gradientTransform="translate(0 -728)" xlink:href="#i"/><linearGradient id="bz" x1="451.31" y1="965.65" x2="451.96" y2="965.65" gradientTransform="translate(0 -728)" xlink:href="#aa"/><linearGradient id="ca" x1="448.41" y1="965.65" x2="449.07" y2="965.65" gradientTransform="translate(0 -728)" xlink:href="#aa"/><linearGradient id="cb" x1="394.53" y1="972.9" x2="423.26" y2="972.9" gradientTransform="translate(0 -728)" xlink:href="#aa"/><linearGradient id="cc" x1="394.53" y1="975.1" x2="423.26" y2="975.1" gradientTransform="translate(0 -728)" xlink:href="#aa"/><linearGradient id="cd" x1="354.16" y1="955.44" x2="362.41" y2="952.76" gradientTransform="translate(-28.3 -732.5)" xlink:href="#a"/><linearGradient id="ce" x1="354.16" y1="976.84" x2="362.41" y2="974.16" gradientTransform="translate(-28.3 -732.5)" xlink:href="#a"/><linearGradient id="cf" x1="428.1" y1="955.42" x2="436.34" y2="952.74" gradientTransform="translate(-28.3 -732.5)" xlink:href="#a"/><linearGradient id="cg" x1="428.09" y1="976.83" x2="436.33" y2="974.15" gradientTransform="translate(-28.3 -732.5)" xlink:href="#a"/><linearGradient id="ch" x1="437.18" y1="955.43" x2="445.43" y2="952.75" gradientTransform="translate(-28.3 -732.5)" xlink:href="#a"/><linearGradient id="ci" x1="437.17" y1="976.83" x2="445.42" y2="974.15" gradientTransform="translate(-28.3 -732.5)" xlink:href="#a"/><linearGradient id="cj" x1="503.01" y1="955.42" x2="511.26" y2="952.74" gradientTransform="translate(-28.3 -732.5)" xlink:href="#a"/><linearGradient id="ck" x1="503.01" y1="976.82" x2="511.26" y2="974.14" gradientTransform="translate(-28.3 -732.5)" xlink:href="#a"/><linearGradient id="cl" x1="385.12" y1="961.74" x2="359.95" y2="963.12" xlink:href="#a"/><linearGradient id="cm" x1="358.63" y1="966.9" x2="445.9" y2="938.56" xlink:href="#a"/><linearGradient id="cn" x1="310.95" y1="982.34" x2="391.65" y2="956.13" gradientTransform="translate(0 -728)" xlink:href="#i"/><linearGradient id="co" x1="363.22" y1="962.65" x2="381.77" y2="962.65" gradientTransform="translate(0 -728)" xlink:href="#aa"/><linearGradient id="cp" x1="393.55" y1="934.1" x2="513.48" y2="934.1" xlink:href="#a"/><linearGradient id="cq" x1="300.45" y1="964.68" x2="449.05" y2="916.41" xlink:href="#a"/><linearGradient id="cr" x1="485.34" y1="934.42" x2="491.49" y2="934.49" xlink:href="#a"/><linearGradient id="cs" x1="489.61" y1="934.42" x2="495.77" y2="934.49" xlink:href="#a"/><linearGradient id="ct" x1="493.88" y1="934.42" x2="500.04" y2="934.49" xlink:href="#a"/><linearGradient id="cu" x1="498.15" y1="934.42" x2="504.31" y2="934.49" xlink:href="#a"/><linearGradient id="cv" x1="424.38" y1="934.26" x2="412.7" y2="932.91" gradientTransform="translate(-28.3 -732.5)" xlink:href="#a"/><linearGradient id="cw" x1="424.19" y1="930.62" x2="415.22" y2="937.27" xlink:href="#i"/><linearGradient id="cx" x1="421.98" y1="934.04" x2="415.69" y2="933.31" gradientTransform="translate(-28.3 -732.5)" xlink:href="#a"/><linearGradient id="cy" x1="414.35" y1="930.95" x2="408.06" y2="930.22" gradientTransform="translate(-28.3 -732.5)" xlink:href="#a"/><linearGradient id="cz" x1="407.55" y1="933.21" x2="416.51" y2="927.93" xlink:href="#i"/><linearGradient id="da" x1="409.21" y1="930.94" x2="402.92" y2="930.21" gradientTransform="translate(-28.3 -732.5)" xlink:href="#a"/><linearGradient id="db" x1="402.39" y1="933.18" x2="411.35" y2="927.9" xlink:href="#i"/><linearGradient id="dc" x1="414.35" y1="936.45" x2="408.06" y2="935.72" gradientTransform="translate(-28.3 -732.5)" xlink:href="#a"/><linearGradient id="dd" x1="407.51" y1="938.73" x2="416.47" y2="933.45" xlink:href="#i"/><linearGradient id="de" x1="409.21" y1="936.45" x2="402.92" y2="935.72" gradientTransform="translate(-28.3 -732.5)" xlink:href="#a"/><linearGradient id="df" x1="402.36" y1="938.7" x2="411.32" y2="933.42" xlink:href="#i"/><linearGradient id="dg" x1="403.96" y1="930.95" x2="397.68" y2="930.22" gradientTransform="translate(-28.3 -732.5)" xlink:href="#a"/><linearGradient id="dh" x1="397.15" y1="933.2" x2="406.11" y2="927.92" xlink:href="#i"/><linearGradient id="di" x1="403.96" y1="936.45" x2="397.68" y2="935.72" gradientTransform="translate(-28.3 -732.5)" xlink:href="#a"/><linearGradient id="dj" x1="397.12" y1="938.72" x2="406.08" y2="933.44" xlink:href="#i"/><linearGradient id="dk" x1="398.64" y1="930.95" x2="392.36" y2="930.22" gradientTransform="translate(-28.3 -732.5)" xlink:href="#a"/><linearGradient id="dl" x1="391.84" y1="933.21" x2="400.8" y2="927.93" xlink:href="#i"/><linearGradient id="dm" x1="398.64" y1="936.45" x2="392.36" y2="935.72" gradientTransform="translate(-28.3 -732.5)" xlink:href="#a"/><linearGradient id="dn" x1="391.81" y1="938.73" x2="400.77" y2="933.45" xlink:href="#i"/><linearGradient id="do" x1="423.48" y1="924.99" x2="421.1" y2="924.72" xlink:href="#aa"/><linearGradient id="dp" x1="420.54" y1="925" x2="418.16" y2="924.73" xlink:href="#ab"/><linearGradient id="dq" x1="417.88" y1="924.99" x2="415.49" y2="924.72" xlink:href="#ac"/><linearGradient id="dr" x1="360" y1="945.07" x2="403.63" y2="945.67" xlink:href="#a"/><linearGradient id="ds" x1="393.83" y1="938.12" x2="357.08" y2="952.47" gradientTransform="translate(0 -728)" xlink:href="#i"/><linearGradient id="dt" x1="451.31" y1="934.15" x2="451.96" y2="934.15" gradientTransform="translate(0 -728)" xlink:href="#aa"/><linearGradient id="du" x1="448.41" y1="934.15" x2="449.07" y2="934.15" gradientTransform="translate(0 -728)" xlink:href="#aa"/><linearGradient id="dv" x1="394.53" y1="941.4" x2="423.26" y2="941.4" gradientTransform="translate(0 -728)" xlink:href="#aa"/><linearGradient id="dw" x1="394.53" y1="943.5" x2="423.26" y2="943.5" gradientTransform="translate(0 -728)" xlink:href="#aa"/><linearGradient id="dx" x1="354.17" y1="923.93" x2="362.42" y2="921.26" gradientTransform="translate(-28.3 -732.5)" xlink:href="#a"/><linearGradient id="dy" x1="354.17" y1="945.33" x2="362.42" y2="942.66" gradientTransform="translate(-28.3 -732.5)" xlink:href="#a"/><linearGradient id="dz" x1="428.11" y1="923.92" x2="436.35" y2="921.25" gradientTransform="translate(-28.3 -732.5)" xlink:href="#a"/><linearGradient id="ea" x1="428.11" y1="945.32" x2="436.35" y2="942.65" gradientTransform="translate(-28.3 -732.5)" xlink:href="#a"/><linearGradient id="eb" x1="437.19" y1="923.92" x2="445.44" y2="921.25" gradientTransform="translate(-28.3 -732.5)" xlink:href="#a"/><linearGradient id="ec" x1="437.19" y1="945.32" x2="445.44" y2="942.65" gradientTransform="translate(-28.3 -732.5)" xlink:href="#a"/><linearGradient id="ed" x1="503.03" y1="923.91" x2="511.28" y2="921.24" gradientTransform="translate(-28.3 -732.5)" xlink:href="#a"/><linearGradient id="ee" x1="503.02" y1="945.31" x2="511.27" y2="942.64" gradientTransform="translate(-28.3 -732.5)" xlink:href="#a"/><linearGradient id="ef" x1="385.12" y1="930.25" x2="359.95" y2="931.62" xlink:href="#a"/><linearGradient id="eg" x1="358.64" y1="935.39" x2="445.91" y2="907.05" xlink:href="#a"/><linearGradient id="eh" x1="310.96" y1="950.84" x2="391.66" y2="924.63" gradientTransform="translate(0 -728)" xlink:href="#i"/><linearGradient id="ei" x1="363.22" y1="931.1" x2="381.78" y2="931.1" gradientTransform="translate(0 -728)" xlink:href="#aa"/><linearGradient id="ej" x1="35.7" y1="956.65" x2="170.1" y2="956.65" gradientTransform="translate(0 -728)" gradientUnits="userSpaceOnUse"><stop offset="0" stop-color="#ffa12a"/><stop offset="0.5" stop-color="#ffaf3f"/><stop offset="1" stop-color="#00bfa5"/></linearGradient><linearGradient id="ek" x1="128.55" y1="890.67" x2="-137.51" y2="976.38" gradientTransform="translate(0 -728)" gradientUnits="userSpaceOnUse"><stop offset="0" stop-color="#00806e"/><stop offset="0.5" stop-color="#009e88"/><stop offset="1" stop-color="#00bfa5"/></linearGradient><linearGradient id="el" x1="83.42" y1="934.1" x2="37.15" y2="1327.34" xlink:href="#ek"/><linearGradient id="em" x1="145.16" y1="955.55" x2="162.3" y2="955.55" xlink:href="#ek"/><linearGradient id="en" x1="139.88" y1="1018.69" x2="177.5" y2="1002.41" xlink:href="#a"/><linearGradient id="eo" x1="-104.78" y1="1015.8" x2="238.58" y2="1015.8" gradientTransform="translate(0 -728)" xlink:href="#aa"/><linearGradient id="ep" x1="154" y1="1015.8" x2="530.17" y2="1015.8" gradientTransform="translate(0 -728)" xlink:href="#aa"/><linearGradient id="eq" x1="328.5" y1="1015.8" x2="523.4" y2="1015.8" gradientTransform="translate(0 -728)" xlink:href="#aa"/><linearGradient id="er" x1="224.18" y1="1009.95" x2="295.84" y2="1009.62" xlink:href="#a"/><linearGradient id="es" x1="151.25" y1="1042.45" x2="261.07" y2="980.16" xlink:href="#a"/><linearGradient id="et" x1="151.59" y1="891.46" x2="374.35" y2="981.8" gradientTransform="matrix(1, 0, 0.05, 1, -13.04, -728)" xlink:href="#i"/><linearGradient id="eu" x1="109.37" y1="1039.25" x2="407.29" y2="844.32" gradientTransform="translate(0 -728)" xlink:href="#i"/><linearGradient id="ev" x1="337.22" y1="896.86" x2="76.05" y2="1026" gradientTransform="translate(0 -728)" xlink:href="#i"/><linearGradient id="ew" x1="253.5" y1="970.1" x2="302" y2="970.1" xlink:href="#a"/><linearGradient id="ex" x1="188.27" y1="1044.11" x2="382.27" y2="934.08" xlink:href="#a"/><linearGradient id="ey" x1="305.37" y1="971.99" x2="276.12" y2="998.72" xlink:href="#a"/><linearGradient id="ez" x1="277.51" y1="977.96" x2="190.65" y2="1015.61" xlink:href="#a"/><linearGradient id="fa" x1="221.9" y1="1005.85" x2="242.2" y2="1005.85" xlink:href="#a"/><linearGradient id="fb" x1="394.65" y1="886.94" x2="536.7" y2="818.1" gradientTransform="translate(0 -728)" xlink:href="#aa"/><linearGradient id="fc" x1="403.88" y1="882.93" x2="588.8" y2="852.63" xlink:href="#ek"/><linearGradient id="fd" x1="72.89" y1="1028.89" x2="170.99" y2="943.09" gradientTransform="translate(0 -728)" xlink:href="#i"/><linearGradient id="fe" x1="100.44" y1="1009.38" x2="142.91" y2="967.41" gradientTransform="translate(0 -728)" xlink:href="#i"/><linearGradient id="ff" x1="114.09" y1="993.56" x2="69.46" y2="1019.02" gradientTransform="translate(0 -728)" xlink:href="#i"/><linearGradient id="fg" x1="99.23" y1="996.25" x2="110.6" y2="996.25" xlink:href="#a"/><linearGradient id="fh" x1="309.29" y1="841.44" x2="359.84" y2="888.22" xlink:href="#ek"/><radialGradient id="fi" cx="286.59" cy="187.51" r="11.73" gradientUnits="userSpaceOnUse"><stop offset="0.22" stop-color="#fff"/><stop offset="1" stop-color="#00349b"/></radialGradient><radialGradient id="fj" cx="283.2" cy="197.39" r="5.69" gradientUnits="userSpaceOnUse"><stop offset="0.22" stop-color="#fff"/><stop offset="0.6" stop-color="#839cce"/><stop offset="0.83" stop-color="#00349b"/></radialGradient><radialGradient id="fk" cx="1972.55" cy="2433.52" fx="1928.5823116948502" fy="2494.2095087919224" r="95.24" gradientTransform="matrix(0.12, -0.04, 0.05, 0.1, -62.2, 9.5)" gradientUnits="userSpaceOnUse"><stop offset="0" stop-color="#fcee21"/><stop offset="0.05" stop-color="#fce724"/><stop offset="0.26" stop-color="#fbcf2e"/><stop offset="0.48" stop-color="#fbbe35"/><stop offset="0.71" stop-color="#fbb33a"/><stop offset="1" stop-color="#fbb03b"/></radialGradient><linearGradient id="fl" x1="4667.99" y1="990.02" x2="4678.11" y2="990.02" gradientTransform="matrix(0.13, 0.06, -0.06, 0.13, -244.26, -211.58)" gradientUnits="userSpaceOnUse"><stop offset="0.22" stop-color="#fff"/><stop offset="1" stop-color="#662d91"/></linearGradient><radialGradient id="fm" cx="9489.81" cy="12274.52" fx="9445.841670086484" fy="12335.210281462023" r="95.24" gradientTransform="matrix(0.02, 0, 0.01, 0.02, -4.37, 1.61)" xlink:href="#fk"/><clipPath id="fn" transform="translate(-28.3 -4.5)"><rect class="a" x="253.5" y="47.4" width="63" height="63"/></clipPath><linearGradient id="fo" x1="422.91" y1="818.35" x2="467.1" y2="818.35" gradientTransform="matrix(1, 0, -0.16, 1, 29.68, -728)" xlink:href="#a"/><linearGradient id="fp" x1="283.43" y1="840.63" x2="375.67" y2="810.77" xlink:href="#a"/><linearGradient id="fq" x1="102.74" y1="-96.45" x2="99.76" y2="-97.49" gradientTransform="matrix(1.51, 0.06, 0.06, 1.65, 271.67, 186.91)" gradientUnits="userSpaceOnUse"><stop offset="0.29" stop-color="#fff"/><stop offset="0.83" stop-color="#00349b"/></linearGradient><radialGradient id="fr" cx="3340.55" cy="-1291.66" fx="3296.588187714641" fy="-1230.9643201554597" r="95.24" gradientTransform="matrix(0.04, -0.01, 0.02, 0.03, 309.13, 105.79)" xlink:href="#fk"/><radialGradient id="fs" cx="2259.72" cy="-188.91" r="11.73" gradientTransform="matrix(0.09, 0, 0, 0.07, 210.61, 48.31)" xlink:href="#fi"/><linearGradient id="ft" x1="1663.77" y1="370.98" x2="1660.79" y2="369.94" gradientTransform="matrix(0.41, 0, 0, 0.4, -252.81, -110.83)" xlink:href="#fq"/><radialGradient id="fu" cx="420.41" cy="33.61" fx="420.4124701299006" fy="33.61080132546704" r="1.03" gradientTransform="matrix(0.01, 0, 0, 0.01, 204.85, 49.05)" xlink:href="#fk"/><radialGradient id="fv" cx="-1630.66" cy="-2749.7" r="11.73" gradientTransform="matrix(-0.04, 0.07, -0.08, -0.04, 143.69, 43.05)" xlink:href="#fi"/><linearGradient id="fw" x1="-794.89" y1="-2359.65" x2="-797.6" y2="-2360.59" gradientTransform="matrix(-0.19, 0.36, -0.35, -0.19, -545.77, -139.16)" xlink:href="#fq"/><radialGradient id="fx" cx="436.06" cy="34.28" fx="436.06184624578236" fy="34.27943616553057" r="0.93" gradientTransform="matrix(0, 0.01, -0.01, 0, 145.66, 38.58)" xlink:href="#fk"/></defs><path class="b" d="M458.8,34.5C381.3-26.9,276.1,12.3,212,95.7,131.1,201,43.7,195.4,35.1,249.5,20,345.3,250.9,370.6,377.4,319.7,502.2,269.5,574.9,126.4,458.8,34.5Z" transform="translate(-28.3 -4.5)"/><path class="c" d="M356.6,213.4H503.3v48.8H356.6Z" transform="translate(-28.3 -4.5)"/><path class="d" d="M399.1,254.8H504a3.7,3.7,0,0,1,3.7,3.7v20.8a3.7,3.7,0,0,1-3.6,3.7h-105Z" transform="translate(-28.3 -4.5)"/><path class="e" d="M434,283H355.4a3.4,3.4,0,0,1-3.4-3.4V258.3a3.4,3.4,0,0,1,3.4-3.4H434Z" transform="translate(-28.3 -4.5)"/><path class="f" d="M487.6,262a1.1,1.1,0,0,1,1.1,1.1v12.3a1.1,1.1,0,0,1-2.2,0V263.1A1.1,1.1,0,0,1,487.6,262Z" transform="translate(-28.3 -4.5)"/><path class="g" d="M491.9,262a1.1,1.1,0,0,1,1.1,1.1v12.3a1.1,1.1,0,0,1-2.2,0V263.1A1.1,1.1,0,0,1,491.9,262Z" transform="translate(-28.3 -4.5)"/><path class="h" d="M496.2,262a1.1,1.1,0,0,1,1.1,1.1v12.3a1.1,1.1,0,0,1-2.2,0V263.1A1.1,1.1,0,0,1,496.2,262Z" transform="translate(-28.3 -4.5)"/><path class="i" d="M500.5,262a1.1,1.1,0,0,1,1.1,1.1v12.3a1.1,1.1,0,0,1-2.2,0V263.1A1,1,0,0,1,500.5,262Z" transform="translate(-28.3 -4.5)"/><circle class="j" cx="392.1" cy="264.1" r="2.9"/><circle class="k" cx="391.6" cy="264.1" r="2.9"/><circle class="l" cx="391.6" cy="264.1" r="1.5"/><circle class="m" cx="383.9" cy="261" r="1.5"/><circle class="n" cx="383.5" cy="261" r="1.5"/><circle class="o" cx="378.8" cy="261" r="1.5"/><circle class="p" cx="378.3" cy="261" r="1.5"/><circle class="q" cx="383.9" cy="266.5" r="1.5"/><circle class="r" cx="383.5" cy="266.5" r="1.5"/><circle class="s" cx="378.8" cy="266.5" r="1.5"/><circle class="t" cx="378.3" cy="266.5" r="1.5"/><circle class="u" cx="373.5" cy="261" r="1.5"/><circle class="v" cx="373.1" cy="261" r="1.5"/><circle class="w" cx="373.5" cy="266.5" r="1.5"/><circle class="x" cx="373.1" cy="266.5" r="1.5"/><circle class="y" cx="368.2" cy="261" r="1.5"/><circle class="z" cx="367.8" cy="261" r="1.5"/><circle class="aa" cx="368.2" cy="266.5" r="1.5"/><circle class="ab" cx="367.8" cy="266.5" r="1.5"/><circle class="ac" cx="394.4" cy="255.2" r="0.6"/><circle class="ad" cx="391.4" cy="255.2" r="0.6"/><circle class="ae" cx="388.8" cy="255.2" r="0.6"/><path class="af" d="M382.9,283l-4.2-6H365.3a1.3,1.3,0,0,0-1.2.6l-3.8,5.4Z" transform="translate(-28.3 -4.5)"/><path class="ag" d="M384.9,283l-3.5-5a2.6,2.6,0,0,0-2-1H366.5l-4.2,6Z" transform="translate(-28.3 -4.5)"/><path class="ah" d="M451.3,254.8h.6v28.1h-.6Z" transform="translate(-28.3 -4.5)"/><path class="ai" d="M448.4,254.8h.6v28.1h-.6Z" transform="translate(-28.3 -4.5)"/><path class="aj" d="M394.5,275.9h28.7v.6H394.5Z" transform="translate(-28.3 -4.5)"/><path class="ak" d="M394.5,278h28.7v.6H394.5Z" transform="translate(-28.3 -4.5)"/><circle class="al" cx="327.2" cy="253.8" r="1.1"/><circle class="am" cx="327.2" cy="275.2" r="1.1"/><circle class="an" cx="401.1" cy="253.8" r="1.1"/><circle class="ao" cx="401.1" cy="275.2" r="1.1"/><circle class="ap" cx="410.2" cy="253.8" r="1.1"/><circle class="aq" cx="410.2" cy="275.2" r="1.1"/><circle class="ar" cx="476" cy="253.8" r="1.1"/><circle class="as" cx="476" cy="275.2" r="1.1"/><path class="at" d="M364.2,258.1H382a1.2,1.2,0,0,1,1.2,1.2V272a1.2,1.2,0,0,1-1.2,1.2H364.2A1.2,1.2,0,0,1,363,272V259.2A1.3,1.3,0,0,1,364.2,258.1Z" transform="translate(-28.3 -4.5)"/><path class="au" d="M363.6,258.1h17.8a1.2,1.2,0,0,1,1.2,1.2V272a1.2,1.2,0,0,1-1.2,1.2H363.6a1.2,1.2,0,0,1-1.2-1.2V259.2A1.1,1.1,0,0,1,363.6,258.1Z" transform="translate(-28.3 -4.5)"/><path class="av" d="M363.8,258.9h17.4a.6.6,0,0,1,.6.6v12.3a.6.6,0,0,1-.6.6H363.8a.6.6,0,0,1-.6-.6V259.5A.6.6,0,0,1,363.8,258.9Z" transform="translate(-28.3 -4.5)"/><path class="aw" d="M367.1,269.8c-1.3,0-1.5-1.6-1.7-3.4s-.6-3.9-2.1-3.9v-.7c2.2,0,2.5,2.5,2.8,4.5s.4,2.8,1.1,2.8,1.2-1.1,1.5-2.6.9-3.5,2.6-3.5,2,1.8,2.2,3.4.4,2.7,1.4,2.7,1.3-1.3,1.6-3.2.6-3.4,1.9-3.4,1.6,1.2,1.9,2.4.6,2.1,1.6,2.1v.7c-1.6,0-1.9-1.4-2.2-2.6s-.5-1.9-1.3-1.9-1,1.5-1.2,2.9-.6,3.8-2.2,3.8-1.8-1.7-2-3.3-.5-2.9-1.5-2.9-1.5,1.2-2,3-1,3.1-2.4,3.1Z" transform="translate(-28.3 -4.5)"/><path class="ax" d="M373.6,272.4h-2.3l7-13.5h2.3Zm-2.8,0h-.7l7-13.5h.7Zm-5.6,0h-.3l7-13.5h.3Z" transform="translate(-28.3 -4.5)"/><path class="ay" d="M399.1,223.6H504a3.7,3.7,0,0,1,3.7,3.7V248a3.7,3.7,0,0,1-3.7,3.7H399.1V223.6Z" transform="translate(-28.3 -4.5)"/><path class="az" d="M434,251.7H355.4a3.4,3.4,0,0,1-3.4-3.4V227a3.4,3.4,0,0,1,3.4-3.4H434v28.1Z" transform="translate(-28.3 -4.5)"/><path class="ba" d="M487.6,230.7a1.1,1.1,0,0,1,1.1,1.1v12.3a1.1,1.1,0,1,1-2.2,0V231.8A1.1,1.1,0,0,1,487.6,230.7Z" transform="translate(-28.3 -4.5)"/><path class="bb" d="M491.9,230.7a1.1,1.1,0,0,1,1.1,1.1v12.3a1.1,1.1,0,0,1-2.2,0V231.8A1.1,1.1,0,0,1,491.9,230.7Z" transform="translate(-28.3 -4.5)"/><path class="bc" d="M496.2,230.7a1.1,1.1,0,0,1,1.1,1.1v12.3a1.1,1.1,0,0,1-2.2,0V231.8A1.1,1.1,0,0,1,496.2,230.7Z" transform="translate(-28.3 -4.5)"/><path class="bd" d="M500.5,230.7a1.1,1.1,0,0,1,1.1,1.1v12.3a1.1,1.1,0,1,1-2.2,0V231.8A1,1,0,0,1,500.5,230.7Z" transform="translate(-28.3 -4.5)"/><circle class="be" cx="392.1" cy="232.9" r="2.9"/><circle class="bf" cx="391.6" cy="232.9" r="2.9"/><circle class="bg" cx="391.6" cy="232.9" r="1.5"/><circle class="bh" cx="383.9" cy="229.7" r="1.5"/><circle class="bi" cx="383.5" cy="229.7" r="1.5"/><circle class="bj" cx="378.8" cy="229.7" r="1.5"/><circle class="bk" cx="378.3" cy="229.7" r="1.5"/><circle class="bl" cx="383.9" cy="235.3" r="1.5"/><circle class="bm" cx="383.5" cy="235.3" r="1.5"/><circle class="bn" cx="378.8" cy="235.3" r="1.5"/><circle class="bo" cx="378.3" cy="235.3" r="1.5"/><circle class="bp" cx="373.5" cy="229.7" r="1.5"/><circle class="bq" cx="373.1" cy="229.7" r="1.5"/><circle class="br" cx="373.5" cy="235.3" r="1.5"/><circle class="bs" cx="373.1" cy="235.3" r="1.5"/><circle class="bt" cx="368.2" cy="229.7" r="1.5"/><circle class="bu" cx="367.8" cy="229.7" r="1.5"/><circle class="bv" cx="368.2" cy="235.3" r="1.5"/><circle class="bw" cx="367.8" cy="235.3" r="1.5"/><circle class="bx" cx="394.4" cy="224" r="0.6"/><circle class="by" cx="391.4" cy="224" r="0.6"/><circle class="bz" cx="388.8" cy="224" r="0.6"/><path class="ca" d="M382.9,251.7l-4.2-6H365.3a1.3,1.3,0,0,0-1.2.6l-3.8,5.4Z" transform="translate(-28.3 -4.5)"/><path class="cb" d="M384.9,251.7l-3.5-5a2.6,2.6,0,0,0-2-1H366.5l-4.2,6Z" transform="translate(-28.3 -4.5)"/><path class="cc" d="M451.3,223.6h.6v28.1h-.6Z" transform="translate(-28.3 -4.5)"/><path class="cd" d="M448.4,223.6h.6v28.1h-.6Z" transform="translate(-28.3 -4.5)"/><path class="ce" d="M394.5,244.6h28.7v.6H394.5Z" transform="translate(-28.3 -4.5)"/><path class="cf" d="M394.5,246.8h28.7v.6H394.5Z" transform="translate(-28.3 -4.5)"/><circle class="cg" cx="327.2" cy="222.5" r="1.1"/><circle class="ch" cx="327.2" cy="243.9" r="1.1"/><circle class="ci" cx="401.1" cy="222.5" r="1.1"/><circle class="cj" cx="401.1" cy="243.9" r="1.1"/><circle class="ck" cx="410.2" cy="222.5" r="1.1"/><circle class="cl" cx="410.2" cy="243.9" r="1.1"/><circle class="cm" cx="476" cy="222.5" r="1.1"/><circle class="cn" cx="476" cy="243.9" r="1.1"/><path class="co" d="M364.2,226.8H382a1.2,1.2,0,0,1,1.2,1.2v12.8A1.2,1.2,0,0,1,382,242H364.2a1.2,1.2,0,0,1-1.2-1.2V228A1.4,1.4,0,0,1,364.2,226.8Z" transform="translate(-28.3 -4.5)"/><path class="cp" d="M363.6,226.8h17.8a1.2,1.2,0,0,1,1.2,1.2v12.8a1.2,1.2,0,0,1-1.2,1.2H363.6a1.2,1.2,0,0,1-1.2-1.2V228A1.2,1.2,0,0,1,363.6,226.8Z" transform="translate(-28.3 -4.5)"/><path class="cq" d="M363.8,227.6h17.4a.6.6,0,0,1,.6.6v12.3a.6.6,0,0,1-.6.6H363.8a.6.6,0,0,1-.6-.6V228.2A.6.6,0,0,1,363.8,227.6Z" transform="translate(-28.3 -4.5)"/><path class="cr" d="M367.1,238.6c-1.3,0-1.5-1.6-1.7-3.4s-.6-3.9-2.1-3.9v-.7c2.2,0,2.5,2.5,2.8,4.5s.4,2.8,1.1,2.8,1.2-1.1,1.5-2.6.9-3.5,2.6-3.5,2,1.8,2.2,3.4.4,2.7,1.4,2.7,1.3-1.3,1.6-3.2.6-3.4,1.9-3.4,1.6,1.2,1.9,2.4.6,2.1,1.6,2.1v.7c-1.6,0-1.9-1.4-2.2-2.6s-.5-1.9-1.3-1.9-1,1.5-1.2,2.9-.6,3.8-2.2,3.8-1.8-1.7-2-3.3-.5-2.9-1.5-2.9-1.5,1.2-2,3-1,3.1-2.4,3.1Z" transform="translate(-28.3 -4.5)"/><path class="ax" d="M373.6,241.1h-2.3l7-13.5h2.3Zm-2.8,0h-.7l7-13.5h.7Zm-5.6,0h-.3l7-13.5h.3Z" transform="translate(-28.3 -4.5)"/><path class="cs" d="M399.1,192H504a3.7,3.7,0,0,1,3.7,3.7v20.8a3.7,3.7,0,0,1-3.7,3.7H399.1Z" transform="translate(-28.3 -4.5)"/><path class="ct" d="M434,220.2H355.4a3.4,3.4,0,0,1-3.4-3.4V195.5a3.4,3.4,0,0,1,3.4-3.4H434v28.1Z" transform="translate(-28.3 -4.5)"/><path class="cu" d="M487.6,199.2a1.1,1.1,0,0,1,1.1,1.1v12.3a1.1,1.1,0,1,1-2.2,0V200.3A1.1,1.1,0,0,1,487.6,199.2Z" transform="translate(-28.3 -4.5)"/><path class="cv" d="M491.9,199.2a1.1,1.1,0,0,1,1.1,1.1v12.3a1.1,1.1,0,0,1-2.2,0V200.3A1.1,1.1,0,0,1,491.9,199.2Z" transform="translate(-28.3 -4.5)"/><path class="cw" d="M496.2,199.2a1.1,1.1,0,0,1,1.1,1.1v12.3a1.1,1.1,0,0,1-2.2,0V200.3A1.1,1.1,0,0,1,496.2,199.2Z" transform="translate(-28.3 -4.5)"/><path class="cx" d="M500.5,199.2a1.1,1.1,0,0,1,1.1,1.1v12.3a1.1,1.1,0,0,1-2.2,0V200.3A1,1,0,0,1,500.5,199.2Z" transform="translate(-28.3 -4.5)"/><circle class="cy" cx="392.1" cy="201.3" r="2.9"/><circle class="cz" cx="391.6" cy="201.3" r="2.9"/><circle class="da" cx="391.6" cy="201.3" r="1.5"/><circle class="db" cx="383.9" cy="198.2" r="1.5"/><circle class="dc" cx="383.5" cy="198.2" r="1.5"/><circle class="dd" cx="378.8" cy="198.2" r="1.5"/><circle class="de" cx="378.3" cy="198.2" r="1.5"/><circle class="df" cx="383.9" cy="203.7" r="1.5"/><circle class="dg" cx="383.5" cy="203.7" r="1.5"/><circle class="dh" cx="378.8" cy="203.7" r="1.5"/><circle class="di" cx="378.3" cy="203.7" r="1.5"/><circle class="dj" cx="373.5" cy="198.2" r="1.5"/><circle class="dk" cx="373.1" cy="198.2" r="1.5"/><circle class="dl" cx="373.5" cy="203.7" r="1.5"/><circle class="dm" cx="373.1" cy="203.7" r="1.5"/><circle class="dn" cx="368.2" cy="198.2" r="1.5"/><circle class="do" cx="367.8" cy="198.2" r="1.5"/><circle class="dp" cx="368.2" cy="203.7" r="1.5"/><circle class="dq" cx="367.8" cy="203.7" r="1.5"/><circle class="dr" cx="394.4" cy="192.4" r="0.6"/><circle class="ds" cx="391.4" cy="192.4" r="0.6"/><circle class="dt" cx="388.8" cy="192.4" r="0.6"/><path class="du" d="M382.9,220.2l-4.2-6H365.3a1.3,1.3,0,0,0-1.2.6l-3.8,5.4Z" transform="translate(-28.3 -4.5)"/><path class="dv" d="M384.9,220.2l-3.5-5a2.6,2.6,0,0,0-2-1H366.5l-4.2,6Z" transform="translate(-28.3 -4.5)"/><path class="dw" d="M451.3,192.1h.6v28.1h-.6Z" transform="translate(-28.3 -4.5)"/><path class="dx" d="M448.4,192.1h.6v28.1h-.6Z" transform="translate(-28.3 -4.5)"/><path class="dy" d="M394.5,213.1h28.7v.6H394.5Z" transform="translate(-28.3 -4.5)"/><path class="dz" d="M394.5,215.2h28.7v.6H394.5Z" transform="translate(-28.3 -4.5)"/><circle class="ea" cx="327.2" cy="191" r="1.1"/><circle class="eb" cx="327.2" cy="212.4" r="1.1"/><circle class="ec" cx="401.1" cy="191" r="1.1"/><circle class="ed" cx="401.1" cy="212.4" r="1.1"/><circle class="ee" cx="410.2" cy="191" r="1.1"/><circle class="ef" cx="410.2" cy="212.4" r="1.1"/><circle class="eg" cx="476" cy="191" r="1.1"/><circle class="eh" cx="476" cy="212.4" r="1.1"/><path class="ei" d="M364.2,195.3H382a1.2,1.2,0,0,1,1.2,1.2v12.8a1.2,1.2,0,0,1-1.2,1.2H364.2a1.2,1.2,0,0,1-1.2-1.2V196.5A1.3,1.3,0,0,1,364.2,195.3Z" transform="translate(-28.3 -4.5)"/><path class="ej" d="M363.6,195.3h17.8a1.2,1.2,0,0,1,1.2,1.2v12.8a1.2,1.2,0,0,1-1.2,1.2H363.6a1.2,1.2,0,0,1-1.2-1.2V196.5A1.2,1.2,0,0,1,363.6,195.3Z" transform="translate(-28.3 -4.5)"/><path class="ek" d="M363.8,196.1h17.4a.6.6,0,0,1,.6.6V209a.6.6,0,0,1-.6.6H363.8a.6.6,0,0,1-.6-.6V196.7a.6.6,0,0,1,.6-.6Z" transform="translate(-28.3 -4.5)"/><path class="el" d="M367.1,207c-1.3,0-1.5-1.6-1.7-3.4s-.6-3.9-2.1-3.9v-.6c2.2,0,2.5,2.5,2.8,4.5s.4,2.8,1.1,2.8,1.2-1.1,1.5-2.6.9-3.5,2.6-3.5,2,1.8,2.2,3.4.4,2.7,1.4,2.7,1.3-1.4,1.6-3.2.6-3.4,1.9-3.4,1.6,1.2,1.9,2.4.6,2.1,1.6,2.1v.6c-1.5,0-1.9-1.4-2.2-2.6s-.5-1.9-1.3-1.9-1,1.5-1.2,2.9-.6,3.8-2.2,3.8-1.8-1.7-2-3.2-.5-2.9-1.5-2.9-1.5,1.2-2,3-.9,3-2.4,3Z" transform="translate(-28.3 -4.5)"/><path class="ax" d="M373.6,209.6h-2.3l7-13.5h2.3Zm-2.8,0h-.7l7-13.5h.7Zm-5.6,0h-.3l7-13.5h.3Z" transform="translate(-28.3 -4.5)"/><path class="b" d="M190.1,104.4c-25.5,37.1-111,95-107.6,56.4S165.6,31.3,192.4,55.6c11.7,10.6,12.6,27.2-2.3,48.8Z" transform="translate(-28.3 -4.5)"/><path class="em" d="M170.1,240.7l-25,9.2,1.7,42.6H58.3l-2.9-40.8H35.7l6-56.4c.8-7.4,4.1-13.2,11.2-16.9L77,167.2l4-2.4,32.6,5.8,3.6,1.6,15.8,6.7a55,55,0,0,1,12,6.9,20.8,20.8,0,0,1,6.6,8.6l18.5,46.3Z" transform="translate(-28.3 -4.5)"/><path class="en" d="M117.3,172.2c-1.2,3.2-6.6,11.4-13,10.7-8-.9-21.3-8.8-27.3-15.6l4-2.4,32.6,5.8Z" transform="translate(-28.3 -4.5)"/><path class="eo" d="M113.6,171c-.5.6-2.9,6.3-9.5,6.4s-23.1-10.7-23-12.6.2-7.4.4-13.3.3-10.6.3-10.6l31,8.1s.7,11.2.9,17.6a21.7,21.7,0,0,1-.1,4.4Z" transform="translate(-28.3 -4.5)"/><path class="ep" d="M120.7,125.8c5.2-3.2,3.5-8.4,4.1-11.1s4.8-6.7,6.5-11.4S128.8,87,118.5,88.2c-5.1.6-11.6,5.2-22.4,4.8s-20.7,2.3-21.7,12c0,0-5.6-1.3-5.6,10.3,0,15.7,4.5,29,17.8,29.2s34.1-18.7,34.1-18.7Z" transform="translate(-28.3 -4.5)"/><path class="eq" d="M113.6,166.6c-3,4.9-9.7,5.8-16.2,1.8-4-2.4-12.6-10.9-15.9-16.9.2-5.5.3-10.6.3-10.6l31,8.1c-.1,0,.6,11.1.8,17.6Z" transform="translate(-28.3 -4.5)"/><path class="eo" d="M122,145.4c1.3-4.9-.8-18.8,0-32.6,0,0-38.4-.6-41.4,0-.1,1.3-.2,5.9-.2,7.8-3.6-1.4-6,.6-5.9,4.4.1,6.2,3.2,8.1,6.1,6.6v2.9c.2,5.8.7,8.1,1.4,9.7,1.6,3.6,19.9,16.3,25,16S121.4,147.9,122,145.4Z" transform="translate(-28.3 -4.5)"/><path class="eq" d="M79.3,124.7a1.4,1.4,0,0,0-1.5-1.3,1.4,1.4,0,0,0-1.3,1.5.4.4,0,0,0,.1.3c.2,1.3,1.4,1.8,1.2,2.9s.7,1.6,1,1.3.7-.7.7-2.4A16.4,16.4,0,0,0,79.3,124.7Zm7.9-5.9c.9-.3,2.4.8,5.2-.3s3.6,2.6,14,2.9,15.4-.7,15.4-.7v-5.4l-25.7-2.7Z" transform="translate(-28.3 -4.5)"/><path class="ep" d="M122.4,116.7c-11.5,3.2-22.7,1.2-25.5-.6s-4.5,0-5.5.9-2.7,3-4.2,1.8a2.2,2.2,0,0,0-3.5,1.7c0,1.5-.2,4.2-.2,6.1s-3.4.6-3.3-2-.4-10.4-.4-10.4l-.6-4,43.3,1.1Z" transform="translate(-28.3 -4.5)"/><path class="er" d="M96.1,291.7l-16-39.9-5.6-40.6-3.6,40.6H55.3l2.9,39.7Z" transform="translate(-28.3 -4.5)"/><path class="es" d="M269.7,273.7c-1.3-.9-2.7-1.7-4.1-2.5a19.5,19.5,0,0,0-3.4.3c-.4-.2-1.8-2-3.4-1.9s-3.6,2.2-3.6,2.2l8.1,3.6,1.3,3.2c.4,1,3.4,1.2,3.4,1.2l-2.1-5.8.6.2,2.5,5.2c.5,1,3.4.8,3.4.8l-2.7-6.5Z" transform="translate(-28.3 -4.5)"/><path class="et" d="M145.2,250V205.1l17.1,38.5Z" transform="translate(-28.3 -4.5)"/><path class="eq" d="M268.3,269.1c-.3-.1-10.8-2.7-11.9-2.8s-12.2,1.9-12.2,1.9l-73.6-11.6-4.7-14.3-20.7,7.6.7,15.3a16.5,16.5,0,0,0,16.5,15.9h81.7l7.2,1.8a5.9,5.9,0,0,0,2.3.1l12.4-1.9s1-2.8-2.5-3.2a39.3,39.3,0,0,0-8.4,0,2.9,2.9,0,0,1-1.5-3.8,2.8,2.8,0,0,1,1.1-1.3l1.4-.9,9.5.5s6.6,6.1,8.9,7.6a5.7,5.7,0,0,0,2.9-.1c.1-.1-8.8-10.7-9.1-10.8Z" transform="translate(-28.3 -4.5)"/><path class="eu" d="M178,283a1.4,1.4,0,0,0,1.4-1.4,1.6,1.6,0,0,0-.3-.9c-2.6-3.4-9.1-6.4-17.8-6.7-10.6-.3-12.3,8.9-12.3,8.9h29Z" transform="translate(-28.3 -4.5)"/><path class="eo" d="M170.1,271.1a32.8,32.8,0,0,0,5.1,1.5c2.5.4,4-1.2,3-1.8s-7.6-3-7.6-3l-8.6-1.7-9.5,1.6-2.9.7-9.2,2.3L64.9,258.9l.6-7.1H39.3l-1.2,17.9a13.2,13.2,0,0,0,12.3,14h92.4l5.1-2.6h5.5l6.3,1.4a6.4,6.4,0,0,0,2.5,1.2,3.3,3.3,0,0,0,1.9-.4.6.6,0,0,0,.3-.8.2.2,0,0,0-.2-.2l-4.1-2.9-4.5-1.5,1.8.3,6.2,2,4.2,1.6c2.9,1.1,4.9-.8,4.1-1.5s-7-3.6-7-3.6l-4.3-1.4,6.7,1.3,4.8,1.2c3.3.8,5.2-1.6,4.3-2.2s-8.2-2.9-8.2-2.9l-7-1.4Z" transform="translate(-28.3 -4.5)"/><path class="eq" d="M65.2,254.9,38.7,261l.6-9.2H65.5Z" transform="translate(-28.3 -4.5)"/><path class="es" d="M167.5,247.5l-21.6,17.8-.7-15.3,20.6-7.6Z" transform="translate(-28.3 -4.5)"/><path class="ev" d="M28.3,283H243.1v9.6H28.3Z" transform="translate(-28.3 -4.5)"/><path class="ew" d="M226.4,283H523.3v9.6H226.4Z" transform="translate(-28.3 -4.5)"/><path class="ex" d="M442.7,283l-114.2,9.6H523.4V283Z" transform="translate(-28.3 -4.5)"/><path class="ey" d="M226.6,280.7h58.3a.5.5,0,0,1,.5.5v1.2a.5.5,0,0,1-.5.5H226.6a.6.6,0,0,1-.6-.5v-1.2a.6.6,0,0,1,.6-.5Z" transform="translate(-28.3 -4.5)"/><path class="ez" d="M189.6,280.7h38.5a.4.4,0,0,1,.4.4v1.4a.4.4,0,0,1-.4.4H189.6a.4.4,0,0,1-.4-.4v-1.4C189.1,280.9,189.3,280.7,189.6,280.7Z" transform="translate(-28.3 -4.5)"/><path class="fa" d="M342.8,256.2H194.1a8.3,8.3,0,0,1-8.5-8.1,7.6,7.6,0,0,1,.1-1.5L197.9,154a11.3,11.3,0,0,1,10.9-9.6H357.5a8.3,8.3,0,0,1,8.5,8.1,7.6,7.6,0,0,1-.1,1.5l-12.2,92.6A11.5,11.5,0,0,1,342.8,256.2Z" transform="translate(-28.3 -4.5)"/><path class="fb" d="M369.2,153.9,357,246.5a11.3,11.3,0,0,1-10.9,9.6H197.4a8.3,8.3,0,0,1-8.5-8.1,7.6,7.6,0,0,1,.1-1.5l12.2-92.6a11.3,11.3,0,0,1,10.9-9.6H360.8a8.3,8.3,0,0,1,8.5,8.1,7.6,7.6,0,0,1-.1,1.5Z" transform="translate(-28.3 -4.5)"/><path class="fc" d="M337.6,256.2H197.4a8.3,8.3,0,0,1-8.5-8.1,7.6,7.6,0,0,1,.1-1.5L201.2,154a11.3,11.3,0,0,1,10.9-9.6H230C221.9,208.9,273.5,246.1,337.6,256.2Z" transform="translate(-28.3 -4.5)"/><path class="fd" d="M261,228l-7.5,28.2h40.8L302,228Z" transform="translate(-28.3 -4.5)"/><path class="fe" d="M310.1,231.3a7.3,7.3,0,0,0-6.6-4.3H266.4l4.7,5.1,2.4,45.4a5.3,5.3,0,0,1-4.9,5.5h55.5a5.7,5.7,0,0,0,5.7-5.7,6.4,6.4,0,0,0-.5-2.3Zm-14.7,28.9a10.1,10.1,0,0,1-9.8-8.8,7.7,7.7,0,0,1,6.4-8.7h2.1a10.1,10.1,0,0,1,9,8.7,7.6,7.6,0,0,1-6.4,8.7h-1.3Z" transform="translate(-28.3 -4.5)"/><path class="ff" d="M297,260.2h-.8a7.6,7.6,0,0,0,7-8.2.9.9,0,0,0-.1-.5,10.1,10.1,0,0,0-9-8.7h.8a10.1,10.1,0,0,1,9.8,8.8,7.6,7.6,0,0,1-6.5,8.6Z" transform="translate(-28.3 -4.5)"/><path class="fg" d="M271.2,232.2a5.3,5.3,0,0,0-5.4-5.1h-4a.7.7,0,0,0-.7.7v.2a.7.7,0,0,0,.7.7h4.6a3.3,3.3,0,0,1,3.3,3.2l2.4,45.8a3,3,0,0,1-2.9,3.2h-.1l-28.3.7a.7.7,0,0,0-.7.7v.6h29.1a4.4,4.4,0,0,0,4.4-4.4v-.2l-2.4-46.1Z" transform="translate(-28.3 -4.5)"/><path class="fh" d="M222.4,240.3h12.1a7.2,7.2,0,0,1,7.2,7.2v67.9" transform="translate(-28.3 -4.5)"/><path class="fi" d="M462,156.4H410a1.9,1.9,0,0,1-1.9-1.8v-.3l4.4-33.2A2.5,2.5,0,0,1,415,119h52a1.9,1.9,0,0,1,1.9,1.8v.3l-4.4,33.2a2.6,2.6,0,0,1-2.5,2.1Z" transform="translate(-28.3 -4.5)"/><path class="fj" d="M463.5,170H403a1.7,1.7,0,0,1-1.7-1.7V168l5.1-36.7a2.4,2.4,0,0,1,2.3-2H433a5.2,5.2,0,0,0,3.3-1.2l2.9-2.4a5,5,0,0,1,3.3-1.2H470a1.7,1.7,0,0,1,1.7,1.7v.3L465.9,168a2.6,2.6,0,0,1-2.4,2Z" transform="translate(-28.3 -4.5)"/><path class="ep" d="M465.3,170H404.8a1.7,1.7,0,0,1-1.7-1.7V168l5.1-36.7a2.4,2.4,0,0,1,2.3-2h24.3a5,5,0,0,0,3.3-1.2l2.9-2.4a5,5,0,0,1,3.3-1.2h27.5a1.7,1.7,0,0,1,1.7,1.7v.3L467.7,168a2.6,2.6,0,0,1-2.4,2Z" transform="translate(-28.3 -4.5)"/><path class="fk" d="M122.7,253.3v22.4a7.6,7.6,0,0,1-7.5,7.5h-4.5a7.6,7.6,0,0,1-7.5-7.5V253.3a1.5,1.5,0,0,1,1.5-1.5h16.4a1.5,1.5,0,0,1,1.6,1.5Z" transform="translate(-28.3 -4.5)"/><path class="fl" d="M129.4,253.3v22.4a7.6,7.6,0,0,1-7.5,7.5H110.6a7.6,7.6,0,0,1-7.5-7.5V253.3a1.5,1.5,0,0,1,1.5-1.5h23.1a1.5,1.5,0,0,1,1.7,1.5Z" transform="translate(-28.3 -4.5)"/><path class="fm" d="M117.4,283.1h-6.7a7.6,7.6,0,0,1-7.5-7.5V253.2a1.5,1.5,0,0,1,1.5-1.5h6.7a1.5,1.5,0,0,0-1.5,1.5v22.4A7.5,7.5,0,0,0,117.4,283.1Z" transform="translate(-28.3 -4.5)"/><path class="fn" d="M109.1,258h-5.2a3.1,3.1,0,0,0-3.1,3.1v14.3a3.1,3.1,0,0,0,3.1,3.1h5.2" transform="translate(-28.3 -4.5)"/><path class="fo" d="M341.3,117.9H310.9a2.4,2.4,0,0,0-2.3,2l-2.1,15.7a1.8,1.8,0,0,0,1.4,2h11.2l3.3,5h1.1l5.5-5h9.6a2.4,2.4,0,0,0,2.3-2l2.1-15.7a1.8,1.8,0,0,0-1.4-2Z" transform="translate(-28.3 -4.5)"/><path class="ep" d="M339.6,116.9H309.2a2.4,2.4,0,0,0-2.3,2l-2.1,15.7a1.8,1.8,0,0,0,1.4,2h11.1l4.3,5,5.6-5h9.6a2.4,2.4,0,0,0,2.3-2l2.1-15.7a1.8,1.8,0,0,0-1.4-2Z" transform="translate(-28.3 -4.5)"/><path class="fp" d="M274.2,183.6c3.5,8,7.9,14.4,9.1,14.2s.8-6.4,5.2-8.4l.9-.3,1.3-.4,6.2-1.5c2.7-.7,3.7-3.3,1.3-4.9-5.5-3.7-20.5-7.4-24-3.4C273.1,180.2,273.8,182.8,274.2,183.6Z" transform="translate(-28.3 -4.5)"/><path class="fq" d="M289.9,190c.2-1.2-2.4,6-3,7.3s-2.7,2-4,1.1-3.6-7.7.2-9.3C283.4,189,291.2,183.4,289.9,190Z" transform="translate(-28.3 -4.5)"/><path class="fr" d="M274.2,184.3c3.5,8,7.9,14.4,9.1,14.2s.8-6.4,5.3-8.4l.9-.3,1.2-.4,6.3-1.5c2.6-.7,3.7-3.3,1.3-4.9-5.5-3.7-20.6-7.4-24.1-3.4C273.1,180.9,273.9,183.5,274.2,184.3Z" transform="translate(-28.3 -4.5)"/><path class="fs" d="M294.4,193.4l-.6,1.2c-.3.5-.6.4-.8.2s-.5-1.5.2-1.7S294.7,192.2,294.4,193.4Z" transform="translate(-28.3 -4.5)"/><path class="ft" d="M291.7,192.1a6.4,6.4,0,0,0,1.4,2.7c.3,0,.2-1.1,1.1-1.4h.4l1.1-.2c.5-.1.7-.6.3-.9s-3.6-1.6-4.3-.9A.8.8,0,0,0,291.7,192.1Z" transform="translate(-28.3 -4.5)"/><path class="fu" d="M447.4,27.4H348.6c-3.3,0-6,3.9-6,8.7V93.7c0,4.8,2.7,8.7,6,8.7h98.8c3.3,0,6-3.9,6-8.7V36.1C453.4,31.3,450.7,27.4,447.4,27.4Z" transform="translate(-28.3 -4.5)"/><path class="fv" d="M453.4,34.4H342.6v8H453.4Z" transform="translate(-28.3 -4.5)"/><path class="fv" d="M447.9,27.4H348.1v8h99.8Z" transform="translate(-28.3 -4.5)"/><path class="fv" d="M353.6,34.4c0-3.9-2.1-7-4.8-7h-1.4c-2.6,0-4.8,3.1-4.8,7h0c0,3.9,2.2,7,4.8,7h1.4c2.7,0,4.8-3.1,4.8-7Z" transform="translate(-28.3 -4.5)"/><path class="fv" d="M453.4,34.4c0-3.9-2.2-7-4.8-7h-1.4c-2.7,0-4.8,3.1-4.8,7h0c0,3.9,2.1,7,4.8,7h1.4c2.6,0,4.8-3.1,4.8-7Z" transform="translate(-28.3 -4.5)"/><path class="fw" d="M348.4,37.1c.7,0,1.3-.8,1.3-1.8s-.6-1.8-1.3-1.8-1.2.8-1.2,1.8S347.7,37.1,348.4,37.1Z" transform="translate(-28.3 -4.5)"/><path class="fw" d="M354.9,37.1c.7,0,1.2-.8,1.2-1.8s-.5-1.8-1.2-1.8-1.3.8-1.3,1.8S354.2,37.1,354.9,37.1Z" transform="translate(-28.3 -4.5)"/><path class="fw" d="M361.3,37.1c.7,0,1.3-.8,1.3-1.8s-.6-1.8-1.3-1.8-1.2.8-1.2,1.8S360.6,37.1,361.3,37.1Z" transform="translate(-28.3 -4.5)"/><path class="fx" d="M434.9,55.9H391.3c-.8,0-1.5.9-1.5,2.1s.7,2.2,1.5,2.2h43.6c.9,0,1.5-1,1.5-2.2S435.8,55.9,434.9,55.9Z" transform="translate(-28.3 -4.5)"/><path class="fy" d="M434.9,70.3H391.3c-.8,0-1.5.9-1.5,2.1s.7,2.2,1.5,2.2h43.6c.9,0,1.5-1,1.5-2.2S435.8,70.3,434.9,70.3Z" transform="translate(-28.3 -4.5)"/><path class="fy" d="M418.6,84.7H391.3c-.8,0-1.5.9-1.5,2.1s.7,2.2,1.5,2.2h27.3c.8,0,1.5-1,1.5-2.2S419.4,84.7,418.6,84.7Z" transform="translate(-28.3 -4.5)"/><path class="fz" d="M370.1,56H357c-2.6,0-4.8,3.1-4.8,6.9v19c0,3.8,2.2,6.9,4.8,6.9h13.1c2.6,0,4.8-3.1,4.8-6.9v-19C374.9,59.1,372.7,56,370.1,56Z" transform="translate(-28.3 -4.5)"/><path class="fz" d="M352.2,62.9h22.7" transform="translate(-28.3 -4.5)"/><path class="ga" d="M368.7,82.4H358.4a9,9,0,0,1,1.6-5,4.1,4.1,0,0,1,7.1,0A9,9,0,0,1,368.7,82.4Z" transform="translate(-28.3 -4.5)"/><path class="ga" d="M363.5,75.3c1.5,0,2.6-1.7,2.6-3.8s-1.1-3.7-2.6-3.7-2.5,1.7-2.5,3.7S362.1,75.3,363.5,75.3Z" transform="translate(-28.3 -4.5)"/><path class="ga" d="M367.6,59.3h2.7" transform="translate(-28.3 -4.5)"/><path class="ga" d="M357.2,59.3h.5" transform="translate(-28.3 -4.5)"/><g class="gb"><path class="gc" d="M315.5,72.6V59.7a2.6,2.6,0,0,0-.9-1.6,3,3,0,0,0-1.8-.6H275.2" transform="translate(-28.3 -4.5)"/><path class="gd" d="M312.7,63.9H288.6a5.4,5.4,0,0,1-3.6-1.4l-3.9-3.6a5.5,5.5,0,0,0-3.7-1.4H256.8l-.9.2-.7.5a2.2,2.2,0,0,0-.5.8,1.5,1.5,0,0,0-.2.9V97.4a3.2,3.2,0,0,0,.8,2,2.7,2.7,0,0,0,1.9.8h55.5a2.7,2.7,0,0,0,2.8-2.8V66.7a2.8,2.8,0,0,0-.8-2A3.2,3.2,0,0,0,312.7,63.9Z" transform="translate(-28.3 -4.5)"/><path class="ge" d="M266.5,86.6a1.7,1.7,0,0,1,1.5-.5h2.4a2.1,2.1,0,0,0,1.2-.4,2.8,2.8,0,0,0,.8-1.1l.8-3.2h-5.4a6.6,6.6,0,0,0-4.2,1.5,5.7,5.7,0,0,0-1.5,1.6,5.1,5.1,0,0,0-1,2.1v.3a6.9,6.9,0,0,0-.1,3.2,7.2,7.2,0,0,0,1.3,2.8,6.6,6.6,0,0,0,2.4,2,6.5,6.5,0,0,0,3.1.8h1.6l1-3.5a.8.8,0,0,0,.1-.4c-.1-.2-.1-.3-.2-.4l-.3-.3H268a2.7,2.7,0,0,1-1.2-.3,2.7,2.7,0,0,1-.8-.7,3.1,3.1,0,0,1-.5-1,2.4,2.4,0,0,1,0-1.2A2.6,2.6,0,0,1,266.5,86.6Z" transform="translate(-28.3 -4.5)"/><path class="ge" d="M288.8,82.3a7.2,7.2,0,0,0-1.3-2.8,6.8,6.8,0,0,0-2.4-2,6.4,6.4,0,0,0-3.1-.7h-4.9a1.9,1.9,0,0,0-1.2.4,2.1,2.1,0,0,0-.7,1.1l-4.7,17.4h3.3a1.8,1.8,0,0,0,1.2-.5,1.6,1.6,0,0,0,.7-.9l3.4-12.8h2.7l1.1.2a2.7,2.7,0,0,1,.8.7,2.4,2.4,0,0,1,.5,1,2.4,2.4,0,0,1,0,1.2,2.5,2.5,0,0,1-2.4,1.8h-1.4a2.8,2.8,0,0,0-1.2.4,2.6,2.6,0,0,0-.7,1.1l-.9,3.2h4.3a9.3,9.3,0,0,0,2.3-.4,5.9,5.9,0,0,0,1.9-1.1,8.1,8.1,0,0,0,1.6-1.6,20,20,0,0,0,1-2.1v-.4A6.9,6.9,0,0,0,288.8,82.3Z" transform="translate(-28.3 -4.5)"/></g><path class="gf" d="M362.2,95.1h-.5a8.3,8.3,0,0,0,.4-1.5A6.5,6.5,0,0,0,357,86h-1.5a8.5,8.5,0,0,0-3.8.9,9.2,9.2,0,0,0-9.4-7.6,13.5,13.5,0,0,0-12.9,11.1v.3a4,4,0,0,0-1.9-.3,6.8,6.8,0,0,0-6.5,5.6,4.7,4.7,0,0,0,3.6,5.5h36.5a3.9,3.9,0,0,0,3.7-3.2,2.6,2.6,0,0,0-2.1-3.1c0-.1-.3-.1-.5-.1Z" transform="translate(-28.3 -4.5)"/><path class="gg" d="M363.4,95.1h-.5a8.3,8.3,0,0,0,.4-1.5,6.5,6.5,0,0,0-5.1-7.7h-1.5a8.5,8.5,0,0,0-3.8.9,9.2,9.2,0,0,0-9.4-7.6,13.5,13.5,0,0,0-12.9,11.1v.3a4,4,0,0,0-1.9-.3,6.8,6.8,0,0,0-6.5,5.6,4.7,4.7,0,0,0,3.6,5.5h36.5a3.9,3.9,0,0,0,3.7-3.2,2.6,2.6,0,0,0-2.1-3.1Z" transform="translate(-28.3 -4.5)"/><path class="ep" d="M412.3,30c1.3,2.5,2.9,4.5,3.4,4.4s.1-1.9,1.6-2.5h.8l2.1-.3c.9-.2,1.2-1,.4-1.5s-7.2-2.5-8.4-1.3S412.2,29.7,412.3,30Z" transform="translate(-28.3 -4.5)"/><path class="gh" d="M417.8,32.1l-.9,2.2c-.3.8-.9.6-1.4.3s-1.3-2.4,0-2.8S418.2,30.1,417.8,32.1Z" transform="translate(-28.3 -4.5)"/><path class="gi" d="M412.3,30.2c1.4,2.5,3,4.5,3.4,4.5s.2-2,1.7-2.5h.7a15.5,15.5,0,0,1,2.1-.4c.9-.2,1.3-1,.4-1.5s-7.2-2.5-8.3-1.3S412.2,29.9,412.3,30.2Z" transform="translate(-28.3 -4.5)"/><text class="gj" transform="translate(389.8 34.1) scale(0.82 1)">HOST</text><text class="gk" transform="translate(408.9 34.4) scale(0.77 1)">Kites</text><path class="gl" d="M418.9,33a2.9,2.9,0,0,0,.8,1.1c.2,0,.1-.5.5-.7h.8c.2-.1.3-.3.1-.4s-1.9-.5-2.2-.2S418.9,33,418.9,33Z" transform="translate(-28.3 -4.5)"/><path class="gm" d="M420.3,33.5c.1-.1-.2.4-.2.5a.2.2,0,0,1-.4.1c-.2-.1-.3-.6,0-.7S420.5,33,420.3,33.5Z" transform="translate(-28.3 -4.5)"/><path class="gn" d="M418.9,33.1a2.3,2.3,0,0,0,.8,1c.2,0,.1-.4.5-.6h.1a.1.1,0,0,0,.1-.1h.6c.2,0,.3-.2.1-.3s-1.9-.6-2.2-.3S418.9,33,418.9,33.1Z" transform="translate(-28.3 -4.5)"/><path class="go" d="M436.4,33.2a2.6,2.6,0,0,0-1.5.1c-.1.1.4.3.4.6h0a1.1,1.1,0,0,0-.2.5c0,.2.1.3.3.2s1.5-1.1,1.4-1.4A.4.4,0,0,0,436.4,33.2Z" transform="translate(-28.3 -4.5)"/><path class="gp" d="M435.2,34l-.5-.4c-.1-.2,0-.3.1-.4s.8.1.8.4S435.7,34.3,435.2,34Z" transform="translate(-28.3 -4.5)"/><path class="gq" d="M436.3,33.2a2.6,2.6,0,0,0-1.5.1c0,.1.5.3.4.6h0a4.3,4.3,0,0,0-.1.5c-.1.2.1.3.3.2s1.5-1.1,1.3-1.5Z" transform="translate(-28.3 -4.5)"/><path class="fu" d="M413.2,30.8a3.2,3.2,0,0,0,.8,1c.1,0,0-.5.5-.6h.7c.2-.1.3-.2.1-.3a3.3,3.3,0,0,0-2.1-.3A.3.3,0,0,0,413.2,30.8Z" transform="translate(-28.3 -4.5)"/><path class="ep" d="M414.1,31.7H414c0-.1-.2-.5,0-.6a1.1,1.1,0,0,1,.6,0h0C414.3,31.2,414.1,31.3,414.1,31.7Z" transform="translate(-28.3 -4.5)"/><ellipse class="fu" cx="414.1" cy="31.2" transform="translate(350 440.4) rotate(-89.4)"/><ellipse class="fu" cx="414.1" cy="31.2" transform="translate(345.5 440) rotate(-88.7)"/><path class="fu" d="M415.1,29.6a3.2,3.2,0,0,0,.8,1c.1-.1.1-.5.5-.6h.7c.3-.1.3-.2.1-.3a3.3,3.3,0,0,0-2.1-.3A.3.3,0,0,0,415.1,29.6Z" transform="translate(-28.3 -4.5)"/><path class="ep" d="M416,30.5h-.1c0-.1-.2-.5,0-.6h.6C416.2,30,416,30.1,416,30.5Z" transform="translate(-28.3 -4.5)"/><ellipse class="fu" cx="416" cy="30" transform="translate(353.1 441.1) rotate(-89.4)"/><ellipse class="fu" cx="416" cy="30" transform="translate(348.6 440.7) rotate(-88.7)"/></svg>