<svg xmlns="http://www.w3.org/2000/svg" xmlns:xlink="http://www.w3.org/1999/xlink" viewBox="0 0 1591.1 681.8"><defs><style>.a,.d{fill:#00006a;}.b{fill:url(#a);}.c{fill:url(#b);}.d,.e{font-size:391.09px;font-family:MilkyNiceClean, Milky Nice;}.e{fill:#f4b900;}.f{fill:url(#c);}.g{fill:url(#d);}.h{fill:url(#e);}.i{fill:url(#f);}.j{fill:url(#g);}.k{fill:url(#h);}.l{fill:#fff;}</style><linearGradient id="a" x1="382.34" y1="313.89" x2="261.79" y2="271.79" gradientTransform="matrix(1.51, 0.06, 0.06, 1.65, -95.43, -93.49)" gradientUnits="userSpaceOnUse"><stop offset="0.29" stop-color="#fff"/><stop offset="0.83" stop-color="#00349b"/></linearGradient><radialGradient id="b" cx="-1371.45" cy="-2612.08" fx="-1415.4155181619963" fy="-2551.3901964135694" r="95.24" gradientTransform="matrix(1.64, -0.52, 0.77, 1.71, 4697.55, 4059.47)" gradientUnits="userSpaceOnUse"><stop offset="0" stop-color="#fcee21"/><stop offset="0.05" stop-color="#fce724"/><stop offset="0.26" stop-color="#fbcf2e"/><stop offset="0.48" stop-color="#fbbe35"/><stop offset="0.71" stop-color="#fbb33a"/><stop offset="1" stop-color="#fbb03b"/></radialGradient><radialGradient id="c" cx="260.46" cy="140.49" r="11.73" gradientTransform="matrix(3.79, -0.02, -0.02, 3.95, -495.07, -145.82)" gradientUnits="userSpaceOnUse"><stop offset="0.22" stop-color="#fff"/><stop offset="1" stop-color="#00349b"/></radialGradient><linearGradient id="d" x1="938.76" y1="825.95" x2="818.35" y2="783.9" gradientTransform="matrix(0.41, 0, 0, 0.4, 149.3, 109.45)" xlink:href="#a"/><radialGradient id="e" cx="-1038.92" cy="-2508.22" fx="-1082.890253786973" fy="-2447.522409136614" r="95.24" gradientTransform="matrix(0.45, -0.15, 0.19, 0.41, 1448.77, 1271.28)" xlink:href="#b"/><radialGradient id="f" cx="320.17" cy="8.41" r="11.73" gradientTransform="matrix(-1.8, 3.52, -3.28, -1.91, 1726.02, -677.35)" xlink:href="#c"/><linearGradient id="g" x1="39" y1="-1979.21" x2="-86.57" y2="-2023.06" gradientTransform="matrix(-0.19, 0.36, -0.35, -0.19, 386.94, 55.55)" xlink:href="#a"/><radialGradient id="h" cx="-124.32" cy="-3465.59" fx="-168.2898383584751" fy="-3404.896805891452" r="95.24" gradientTransform="matrix(-0.09, 0.48, -0.43, -0.02, -383.82, 444.72)" xlink:href="#b"/></defs><path class="a" d="M172.4,226.4c54.5,133,120.1,239.6,137.3,237.5,21.5-2.7,7.6-103.6,69.2-133.1A120.4,120.4,0,0,1,391,326s8.4-3.1,17.3-5.6c22.9-6.3,64.6-14.7,87.7-20.8,36.9-9.7,50.1-51,15-78.9C431.5,157.4,217.1,87.9,170.2,151,155.1,171.4,167.3,213.8,172.4,226.4Z" transform="translate(-162.9 -126.2)"/><path class="b" d="M397.9,340.3c2.5-18.7-29.6,96-37.1,117.1-14,39.6-37.5,30.8-56.5,15.9-30.7-23.9-55-128.4-2.7-151.3C305.6,320.2,412,233.9,397.9,340.3Z" transform="translate(-162.9 -126.2)"/><path class="c" d="M173.5,237.7c54.4,133,120.1,239.6,137.2,237.5,21.6-2.7,7.7-103.6,69.3-133.1a113.6,113.6,0,0,1,12-4.8s8.5-3.1,17.3-5.6c23-6.3,64.7-14.7,87.8-20.8,36.8-9.7,50.1-51,15-78.9-79.5-63.3-293.9-132.8-340.8-69.7C156.2,182.7,168.3,225.1,173.5,237.7Z" transform="translate(-162.9 -126.2)"/><text class="d" transform="translate(328 565) scale(0.59 1)">HOST</text><text class="e" transform="translate(1029.8 577.8) scale(0.59 1)">Kites</text><path class="f" d="M442.1,388.2c13.1,31.7,29.6,56.8,34.2,56.1s3.2-25.3,20.2-33.3c1.5-.7,3.3-1.3,3.3-1.3s2.3-.9,4.7-1.6c6.2-1.8,17.6-4.4,23.9-6.2,10-2.8,14-13,4.9-19.4-20.7-14.4-77.7-28.6-91-12.6C438,375,440.8,385.2,442.1,388.2Z" transform="translate(-162.9 -126.2)"/><path class="g" d="M501.5,413.1c.9-4.6-9.1,23.7-11.3,29-4.3,9.8-10.5,7.9-15.4,4.6-8-5.5-13.4-30.6.9-36.8C476.8,409.4,506.5,387,501.5,413.1Z" transform="translate(-162.9 -126.2)"/><path class="h" d="M442.2,390.9c13.2,31.7,29.6,56.9,34.3,56.1s3.2-25.3,20.1-33.3l3.3-1.3,4.7-1.5c6.3-1.9,17.6-4.5,23.9-6.2,10-2.9,14.1-13.1,4.9-19.4-20.7-14.4-77.6-28.6-90.9-12.7C438.2,377.8,441,387.9,442.2,390.9Z" transform="translate(-162.9 -126.2)"/><path class="i" d="M1158.6,397.7c-32.7-3-61.5.2-63.1,4.9s19.5,15.1,18.1,34.6c-.2,1.8-.5,3.7-.5,3.7s-.4,2.5-1,5.1c-1.4,6.7-4.7,18.4-6.3,25.1-2.4,10.6,4.2,19.2,13.8,13.8,21.9-12.3,61-58.2,54.1-78.2C1171.5,400.3,1161.7,398,1158.6,397.7Z" transform="translate(-162.9 -126.2)"/><path class="j" d="M1109.4,440.8c3.4,3-15.4-19.7-18.7-24.3-6.1-8.6-1.6-13.5,3.6-16.5,8.3-4.8,31.8,2.3,30.1,18.5C1124.3,419.8,1128.7,457.9,1109.4,440.8Z" transform="translate(-162.9 -126.2)"/><path class="k" d="M1156.2,396.5c-32.6-3-61.4.3-63,4.9s19.5,15.1,18,34.6a28.5,28.5,0,0,1-.5,3.7s-.4,2.6-.9,5.1c-1.5,6.7-4.8,18.4-6.3,25.1-2.5,10.7,4.1,19.3,13.8,13.9,21.9-12.3,61-58.3,54.1-78.2C1169.1,399.1,1159.3,396.8,1156.2,396.5Z" transform="translate(-162.9 -126.2)"/><path class="l" d="M208,268.9c12.5,29.9,28.2,53.6,32.7,52.9s3.4-24.1,19.9-31.8l3.2-1.3,4.6-1.5c6-1.8,17-4.4,23.2-6.1,9.7-2.8,13.7-12.6,4.9-18.5-19.9-13.4-75-26.3-88.1-11.1C204.2,256.4,206.8,266.1,208,268.9Z" transform="translate(-162.9 -126.2)"/><path class="a" d="M244.9,316.6a1.3,1.3,0,0,1-2.1-.2c-2.7-5.9-10.6-25,.9-29.1a37.1,37.1,0,0,1,22.9-.7,1.3,1.3,0,0,1,.6,2.1C255.2,291.3,247,299.5,244.9,316.6Z" transform="translate(-162.9 -126.2)"/><ellipse class="l" cx="247.5" cy="290.5" rx="1.4" ry="1.6" transform="translate(-216.7 398.6) rotate(-87.4)"/><ellipse class="l" cx="246.7" cy="291.6" rx="0.6" ry="0.8" transform="translate(-218.5 398.9) rotate(-87.4)"/><path class="l" d="M285.9,205.1c12.5,29.9,28.2,53.6,32.7,52.8s3.4-24,19.9-31.7l3.2-1.3s2.2-.9,4.6-1.6c6-1.8,17-4.3,23.2-6.1,9.7-2.8,13.7-12.5,4.9-18.4-19.9-13.5-75-26.4-88.1-11.1C282.1,192.6,284.7,202.2,285.9,205.1Z" transform="translate(-162.9 -126.2)"/><path class="a" d="M322.8,252.7a1.2,1.2,0,0,1-2.1-.2c-2.7-5.8-10.6-24.9.9-29a36.6,36.6,0,0,1,22.9-.8,1.3,1.3,0,0,1,.6,2.1C333.1,227.5,324.9,235.7,322.8,252.7Z" transform="translate(-162.9 -126.2)"/><ellipse class="l" cx="325.4" cy="226.7" rx="1.4" ry="1.6" transform="translate(-78.5 415.5) rotate(-87.4)"/><ellipse class="l" cx="324.6" cy="227.8" rx="0.6" ry="0.8" transform="translate(-80.3 415.8) rotate(-87.4)"/></svg>